<svg width="975" height="415" viewBox="0 0 975 415" fill="none" xmlns="http://www.w3.org/2000/svg">
<g opacity="0.3" clip-path="url(#clip0_104_154)">
<path d="M312.973 331.077H268.503V409.125H160.682V331.077H0V251.35L167.814 5.87476H268.503V249.671H312.973V331.077ZM160.682 249.671V202.675C160.682 193.863 161.102 182.113 161.521 167.007C162.36 151.901 162.78 144.348 163.199 143.509H160.262C153.969 157.776 146.837 170.784 138.866 183.372L94.3954 249.671H160.682Z" fill="#FF4E4E"/>
<path d="M632.659 208.13C632.659 279.464 620.493 331.916 596.999 365.066C573.085 398.216 536.586 415 487.08 415C438.834 415 402.754 397.796 378.001 362.968C353.668 328.14 341.502 276.527 341.502 208.13C341.502 136.375 353.249 83.9234 377.582 50.3541C401.495 16.7849 437.995 0.000244141 487.5 0.000244141C535.327 0.000244141 571.827 17.6241 596.16 52.4522C620.493 87.2803 632.659 138.893 632.659 208.13ZM449.742 208.13C449.742 253.868 452.679 285.339 458.133 302.124C464.006 319.328 473.236 327.72 486.661 327.72C500.086 327.72 509.735 318.908 515.609 301.284C521.063 283.661 524 252.609 524 208.13C524 163.231 521.063 132.179 515.609 114.136C509.735 96.0922 500.506 87.2803 487.08 87.2803C473.655 87.2803 464.006 96.0922 458.552 113.296C452.679 130.501 449.742 161.972 449.742 208.13Z" fill="#FF4E4E"/>
<path d="M975 331.077H930.529V409.125H822.709V331.077H662.027V251.35L829.841 5.87476H930.529V249.671H975V331.077ZM823.128 249.671V202.675C823.128 193.863 823.548 182.113 823.967 167.007C824.806 151.901 825.226 144.348 825.645 143.509H822.709C816.416 157.776 809.284 170.784 801.312 183.372L756.422 250.091H823.128V249.671Z" fill="#FF5645"/>
</g>
<path d="M439.142 356.004H474.354V404.421L469.953 413.224H430.339C427.698 413.224 425.938 411.464 425.938 408.823V395.618C425.938 389.456 430.339 383.734 436.501 382.854L439.142 382.413V356.004Z" fill="white" stroke="black" stroke-width="3" stroke-miterlimit="10"/>
<path d="M434.741 382.413H463.351C469.513 382.413 474.355 385.054 474.355 391.216V395.618" stroke="black" stroke-width="3" stroke-miterlimit="10"/>
<path d="M526.733 356.004H491.521V408.823C491.521 411.464 493.281 413.224 495.922 413.224H544.339C546.98 413.224 548.741 411.464 548.741 408.823V395.618C548.741 389.456 544.339 383.734 538.177 382.854L526.733 382.413V356.004Z" fill="white" stroke="black" stroke-width="3" stroke-miterlimit="10"/>
<path d="M434.741 108.637V55.8188C434.741 26.7686 458.51 3.00024 487.56 3.00024C516.61 3.00024 540.378 26.7686 540.378 55.8188V108.637C561.066 179.062 581.313 249.927 602 320.352C598.479 322.552 587.915 329.155 572.95 327.834C562.386 326.954 555.344 322.552 551.822 320.352C549.181 322.112 541.259 327.834 529.375 327.834C517.05 327.834 508.687 322.112 506.486 320.352C503.846 322.552 495.483 328.274 483.158 327.834C472.154 327.834 464.232 322.992 461.591 320.792C458.95 322.552 451.027 327.834 439.583 327.834C428.579 327.834 420.656 322.992 418.015 320.792C415.375 322.552 407.452 327.834 396.448 327.834C384.564 327.834 376.641 322.112 374 320.352C393.367 249.927 414.054 179.062 434.741 108.637Z" fill="white" stroke="black" stroke-width="3" stroke-miterlimit="10"/>
<path d="M501.645 47.016C501.645 50.0971 499.004 52.2978 496.363 52.2978C493.282 52.2978 491.081 49.6569 491.081 47.016C491.081 43.9349 493.722 41.7341 496.363 41.7341C499.444 41.7341 501.645 44.3751 501.645 47.016Z" fill="black"/>
<path d="M524.532 47.016C524.532 50.0971 521.891 52.2978 519.25 52.2978C516.169 52.2978 513.969 49.6569 513.969 47.016C513.969 43.9349 516.609 41.7341 519.25 41.7341C521.891 41.7341 524.532 44.3751 524.532 47.016Z" fill="black"/>
<defs>
<clipPath id="clip0_104_154">
<rect width="975" height="415" fill="white" transform="translate(0 0.000244141)"/>
</clipPath>
</defs>
</svg>
