<svg width="540" height="540" viewBox="0 0 540 540" fill="none" xmlns="http://www.w3.org/2000/svg">
<circle cx="270" cy="270" r="270" fill="#FF4E4E"/>
<g filter="url(#filter0_i_302_2423)">
<path d="M187.943 207.339C153.775 213.789 153.039 172.045 157.086 144.25C157.243 143.174 155.765 142.691 155.185 143.611C57.8079 298.103 157.589 431 283.288 431C409.057 431 482.935 316.612 390.727 146.258C390.21 145.303 388.668 145.694 388.72 146.779C390.115 176.127 376.982 199.857 349.075 192.225C309.938 181.523 350.475 124.155 288.512 106.54C287.72 106.315 286.971 107.093 287.264 107.862C297.82 135.602 291.256 160.998 258.296 164.905C225.456 168.797 217.061 144.719 225.223 115.766C225.463 114.915 224.543 114.198 223.776 114.64C182.417 138.512 224.823 200.377 187.943 207.339Z" fill="#E79834"/>
</g>
<path d="M187.943 207.339C153.775 213.789 153.039 172.045 157.086 144.25C157.243 143.174 155.765 142.691 155.185 143.611C57.8079 298.103 157.589 431 283.288 431C409.057 431 482.935 316.612 390.727 146.258C390.21 145.303 388.668 145.694 388.72 146.779C390.115 176.127 376.982 199.857 349.075 192.225C309.938 181.523 350.475 124.155 288.512 106.54C287.72 106.315 286.971 107.093 287.264 107.862C297.82 135.602 291.256 160.998 258.296 164.905C225.456 168.797 217.061 144.719 225.223 115.766C225.463 114.915 224.543 114.198 223.776 114.64C182.417 138.512 224.823 200.377 187.943 207.339Z" stroke="#1F2024" stroke-width="8" stroke-linejoin="round"/>
<path d="M250.148 184.403C268.748 248.841 179.102 268.497 149.839 215.603C148.887 213.883 146.159 214.237 145.836 216.176C126.562 331.848 210.583 425.996 300.5 421.007C395.308 415.746 454.635 274.571 388.346 211.17C387.549 210.407 386.211 210.517 385.455 211.321C324.135 276.593 315.217 174.624 251.822 181.786C250.598 181.925 249.806 183.218 250.148 184.403Z" fill="#F2C95C"/>
<path d="M305.735 237.006C299.49 285.332 365.917 290.49 382.984 250.164C383.749 248.357 386.52 248.313 387.098 250.188C412.567 332.808 360.429 410.264 293.567 416.167C222.807 422.414 163.891 325.195 205.775 271.298C206.449 270.431 207.772 270.345 208.636 271.023C260.449 311.706 256.633 236.782 303.699 234.675C304.933 234.619 305.893 235.781 305.735 237.006Z" fill="#F9E174"/>
<path d="M345.375 326.5C349.794 326.5 353.484 330.146 352.322 334.408C348.852 347.14 337.207 356.5 323.375 356.5C309.544 356.5 297.899 347.14 294.429 334.408C293.267 330.146 296.957 326.5 301.375 326.5H345.375Z" fill="#1F2024"/>
<path d="M379.779 270.522C329.932 271.8 294.968 271.692 239.869 270.46C229.798 270.234 221.469 278.328 221.469 288.423C221.469 298.085 229.127 306.02 238.786 306.355C292.878 308.23 328.11 308.57 381.081 306.443C390.702 306.057 398.281 298.127 398.281 288.515C398.281 278.372 389.889 270.262 379.779 270.522Z" fill="#1F2024" stroke="#1F2024" stroke-width="8"/>
<path d="M389.779 270.522C339.932 271.8 304.968 271.692 249.869 270.46C239.798 270.234 231.469 278.328 231.469 288.423C231.469 298.085 239.127 306.02 248.786 306.355C302.878 308.23 338.11 308.57 391.081 306.443C400.702 306.057 408.281 298.127 408.281 288.515C408.281 278.372 399.889 270.262 389.779 270.522Z" fill="#EB0D18" stroke="#1F2024" stroke-width="8"/>
<path d="M282 270H304L293 306H271L282 270Z" fill="white"/>
<path d="M389.779 270.522C339.932 271.8 304.968 271.692 249.869 270.46C239.798 270.234 231.469 278.328 231.469 288.423C231.469 298.085 239.127 306.02 248.786 306.355C302.878 308.23 338.11 308.57 391.081 306.443C400.702 306.057 408.281 298.127 408.281 288.515C408.281 278.372 399.889 270.262 389.779 270.522Z" stroke="#1F2024" stroke-width="8"/>
<g filter="url(#filter1_i_302_2423)">
<path d="M200.542 306.236L127.845 274L105 274C111.658 308.276 135.567 346.185 158.914 359L179.475 357.946C187.33 358.121 194.594 355.507 200.542 349.48C214.77 335.064 214.199 312.727 200.542 306.236Z" fill="#E79834"/>
</g>
<path d="M200.542 306.236L127.845 274L105 274C111.658 308.276 135.567 346.185 158.914 359L179.475 357.946C187.33 358.121 194.594 355.507 200.542 349.48C214.77 335.064 214.199 312.727 200.542 306.236Z" stroke="#1F2024" stroke-width="8" stroke-linejoin="round"/>
<path d="M105 274C114.406 335.839 148.447 379.036 177.562 349.48C191.763 335.064 191.193 312.727 177.562 306.236L105 274Z" fill="#DE7E25" stroke="#1F2024" stroke-width="8" stroke-linejoin="round"/>
<ellipse cx="152.5" cy="327" rx="13.5" ry="14" fill="#AF6017" stroke="#1F2024" stroke-width="8" stroke-linejoin="round"/>
<path fill-rule="evenodd" clip-rule="evenodd" d="M159.369 315.146C155.272 317.516 152.516 321.945 152.516 327.018C152.516 332.092 155.272 336.521 159.369 338.891C157.353 340.057 155.013 340.725 152.516 340.725C144.946 340.725 138.81 334.588 138.81 327.018C138.81 319.449 144.946 313.312 152.516 313.312C155.013 313.312 157.353 313.979 159.369 315.146Z" fill="#EDB146"/>
<path d="M159.369 315.146L161.372 318.608C162.608 317.893 163.369 316.574 163.369 315.146C163.369 313.718 162.608 312.398 161.372 311.683L159.369 315.146ZM159.369 338.891L161.372 342.354C162.608 341.639 163.369 340.319 163.369 338.891C163.369 337.463 162.608 336.144 161.372 335.429L159.369 338.891ZM156.516 327.018C156.516 323.431 158.46 320.292 161.372 318.608L157.366 311.683C152.084 314.739 148.516 320.46 148.516 327.018H156.516ZM161.372 335.429C158.46 333.744 156.516 330.606 156.516 327.018H148.516C148.516 333.577 152.084 339.298 157.366 342.354L161.372 335.429ZM157.366 335.429C155.943 336.252 154.291 336.725 152.516 336.725V344.725C155.734 344.725 158.764 343.862 161.372 342.354L157.366 335.429ZM152.516 336.725C147.155 336.725 142.81 332.379 142.81 327.018H134.81C134.81 336.797 142.737 344.725 152.516 344.725V336.725ZM142.81 327.018C142.81 321.658 147.155 317.312 152.516 317.312V309.312C142.737 309.312 134.81 317.239 134.81 327.018H142.81ZM152.516 317.312C154.291 317.312 155.943 317.785 157.366 318.608L161.372 311.683C158.764 310.174 155.734 309.312 152.516 309.312V317.312Z" fill="#1F2024"/>
<defs>
<filter id="filter0_i_302_2423" x="111.999" y="102.504" width="324.004" height="332.496" filterUnits="userSpaceOnUse" color-interpolation-filters="sRGB">
<feFlood flood-opacity="0" result="BackgroundImageFix"/>
<feBlend mode="normal" in="SourceGraphic" in2="BackgroundImageFix" result="shape"/>
<feColorMatrix in="SourceAlpha" type="matrix" values="0 0 0 0 0 0 0 0 0 0 0 0 0 0 0 0 0 0 127 0" result="hardAlpha"/>
<feOffset dx="17" dy="-12"/>
<feComposite in2="hardAlpha" operator="arithmetic" k2="-1" k3="1"/>
<feColorMatrix type="matrix" values="0 0 0 0 0 0 0 0 0 0 0 0 0 0 0 0 0 0 0.25 0"/>
<feBlend mode="normal" in2="shape" result="effect1_innerShadow_302_2423"/>
</filter>
<filter id="filter1_i_302_2423" x="101" y="270" width="114" height="93" filterUnits="userSpaceOnUse" color-interpolation-filters="sRGB">
<feFlood flood-opacity="0" result="BackgroundImageFix"/>
<feBlend mode="normal" in="SourceGraphic" in2="BackgroundImageFix" result="shape"/>
<feColorMatrix in="SourceAlpha" type="matrix" values="0 0 0 0 0 0 0 0 0 0 0 0 0 0 0 0 0 0 127 0" result="hardAlpha"/>
<feOffset dy="-20"/>
<feComposite in2="hardAlpha" operator="arithmetic" k2="-1" k3="1"/>
<feColorMatrix type="matrix" values="0 0 0 0 0 0 0 0 0 0 0 0 0 0 0 0 0 0 0.25 0"/>
<feBlend mode="normal" in2="shape" result="effect1_innerShadow_302_2423"/>
</filter>
</defs>
</svg>
